<svg width="29" height="29" viewBox="0 0 29 29" fill="none" xmlns="http://www.w3.org/2000/svg">
<path d="M28.5525 26.6777L20.9627 19.0879C22.6053 17.0771 23.5115 14.5453 23.5115 11.7812C23.5115 5.27324 18.2366 0 11.7303 0C5.22398 0 0 5.27494 0 11.7812C0 18.2876 5.27439 23.5625 11.7303 23.5625C14.4938 23.5625 17.029 22.6047 19.0369 21.0114L26.6268 28.6012C26.944 28.8697 27.2951 29 27.6406 29C27.9861 29 28.3362 28.8672 28.6018 28.6018C29.1303 28.0711 29.1303 27.2102 28.5525 26.6777ZM2.71876 11.7812C2.71876 6.78441 6.78442 2.71875 11.7813 2.71875C16.7781 2.71875 20.8438 6.78441 20.8438 11.7812C20.8438 16.7781 16.7781 20.8438 11.7813 20.8438C6.78442 20.8438 2.71876 16.777 2.71876 11.7812Z" fill="white" fill-opacity="0.75"/>
</svg>
