<svg width="28" height="32" viewBox="0 0 28 32" fill="none" xmlns="http://www.w3.org/2000/svg">
<path d="M16.9707 19H10.9811C4.91652 19 0 23.925 0 30C0 31.1044 0.894084 32 1.99656 32H25.9553C27.0577 32 27.9518 31.1044 27.9518 30C27.9518 23.925 23.0353 19 16.9707 19ZM3.05661 29C3.54951 25.0562 6.91308 22 10.9811 22H16.9707C21.0362 22 24.4017 25.0594 24.8946 29H3.05661ZM13.9759 16C18.3864 16 21.9621 12.4181 21.9621 8C21.9621 3.58187 18.3864 0 13.9759 0C9.56538 0 5.98967 3.58187 5.98967 8C5.98967 12.4187 9.56476 16 13.9759 16ZM13.9759 3C16.728 3 18.9673 5.24312 18.9673 8C18.9673 10.7569 16.728 13 13.9759 13C11.2238 13 8.98451 10.7562 8.98451 8C8.98451 5.24312 11.2244 3 13.9759 3Z" fill="white" fill-opacity="0.75"/>
</svg>
