<svg width="40" height="43" viewBox="0 0 40 43" fill="none" xmlns="http://www.w3.org/2000/svg">
<path d="M28 11H4C1.79688 11 0 12.7969 0 14.9994V32.9431C0 35.1462 1.79688 36.8869 4 36.8869H10.9438L15.145 42.4888C15.4 42.8688 15.7 43 16 43C16.3 43 16.6 42.8667 16.8 42.6L21.0012 36.9981H28C30.2031 36.9981 32 35.2012 32 33.0544V14.9994C32 12.7969 30.2062 11 28 11ZM29 32.9438C29 33.4856 28.5421 33.8875 28 33.8875H19.5562L16 38.6688L12.4981 34H4C3.45788 34 3 33.5421 3 33.0562V14.9994C3 14.4575 3.45812 14 4 14H28C28.5421 14 29 14.4578 29 14.9994V32.9438Z" fill="white" fill-opacity="0.75"/>
<path d="M24 24.3334C24 24.826 23.5885 25.2223 23.0769 25.2223H8.92308C8.41346 25.2223 8 24.8245 8 24.3337C8 23.8445 8.41346 23.4445 8.92308 23.4445H23.0769C23.5885 23.4445 24 23.8445 24 24.3334Z" fill="white" fill-opacity="0.75"/>
<circle cx="29.5" cy="10.5" r="10.5" fill="#FE2C55"/>
<path d="M22.8395 15V14.0455L25.7926 10.9858C26.108 10.6534 26.3679 10.3622 26.5724 10.1122C26.7798 9.85937 26.9347 9.61932 27.0369 9.39205C27.1392 9.16477 27.1903 8.9233 27.1903 8.66761C27.1903 8.37784 27.1222 8.12784 26.9858 7.91761C26.8494 7.70455 26.6634 7.54119 26.4276 7.42756C26.1918 7.31108 25.9261 7.25284 25.6307 7.25284C25.3182 7.25284 25.0455 7.31676 24.8125 7.4446C24.5795 7.57244 24.4006 7.75284 24.2756 7.9858C24.1506 8.21875 24.0881 8.49148 24.0881 8.80398H22.831C22.831 8.27273 22.9531 7.80824 23.1974 7.41051C23.4418 7.01278 23.777 6.70455 24.2031 6.4858C24.6293 6.2642 25.1136 6.15341 25.6562 6.15341C26.2045 6.15341 26.6875 6.26278 27.1051 6.48153C27.5256 6.69744 27.8537 6.9929 28.0895 7.3679C28.3253 7.74006 28.4432 8.16051 28.4432 8.62926C28.4432 8.95312 28.3821 9.26989 28.2599 9.57955C28.1406 9.8892 27.9318 10.2344 27.6335 10.6151C27.3352 10.9929 26.9205 11.4517 26.3892 11.9915L24.6548 13.8068V13.8707H28.5838V15H22.8395ZM33.1477 15.1193C32.5369 15.1193 31.9972 15.0142 31.5284 14.804C31.0625 14.5937 30.6974 14.304 30.4332 13.9347C30.169 13.5653 30.0384 13.1449 30.0412 12.6733C30.0384 12.304 30.1136 11.9645 30.267 11.6548C30.4233 11.3423 30.6349 11.0824 30.902 10.875C31.169 10.6648 31.4673 10.5312 31.7969 10.4744V10.4233C31.3622 10.3182 31.0142 10.0852 30.7528 9.72443C30.4915 9.36364 30.3622 8.94886 30.3651 8.48011C30.3622 8.03409 30.4801 7.63636 30.7188 7.28693C30.9602 6.93466 31.2912 6.65767 31.7116 6.45597C32.1321 6.25426 32.6108 6.15341 33.1477 6.15341C33.679 6.15341 34.1534 6.25568 34.571 6.46023C34.9915 6.66193 35.3224 6.93892 35.5639 7.29119C35.8054 7.64062 35.9276 8.03693 35.9304 8.48011C35.9276 8.94886 35.794 9.36364 35.5298 9.72443C35.2656 10.0852 34.9219 10.3182 34.4986 10.4233V10.4744C34.8253 10.5312 35.1193 10.6648 35.3807 10.875C35.6449 11.0824 35.8551 11.3423 36.0114 11.6548C36.1705 11.9645 36.2514 12.304 36.2543 12.6733C36.2514 13.1449 36.1179 13.5653 35.8537 13.9347C35.5895 14.304 35.223 14.5937 34.7543 14.804C34.2884 15.0142 33.7528 15.1193 33.1477 15.1193ZM33.1477 14.0412C33.5085 14.0412 33.821 13.9815 34.0852 13.8622C34.3494 13.7401 34.554 13.571 34.6989 13.3551C34.8438 13.1364 34.9176 12.8807 34.9205 12.5881C34.9176 12.2841 34.8381 12.0156 34.6818 11.7827C34.5284 11.5497 34.3196 11.3665 34.0554 11.233C33.7912 11.0994 33.4886 11.0327 33.1477 11.0327C32.804 11.0327 32.4986 11.0994 32.2315 11.233C31.9645 11.3665 31.7543 11.5497 31.6009 11.7827C31.4474 12.0156 31.3722 12.2841 31.375 12.5881C31.3722 12.8807 31.4418 13.1364 31.5838 13.3551C31.7287 13.571 31.9347 13.7401 32.2017 13.8622C32.4688 13.9815 32.7841 14.0412 33.1477 14.0412ZM33.1477 9.98011C33.4375 9.98011 33.6946 9.92187 33.919 9.8054C34.1435 9.68892 34.3196 9.52699 34.4474 9.3196C34.5781 9.11222 34.6449 8.86932 34.6477 8.59091C34.6449 8.31818 34.5795 8.07955 34.4517 7.875C34.3267 7.67045 34.152 7.51278 33.9276 7.40199C33.7031 7.28835 33.4432 7.23153 33.1477 7.23153C32.8466 7.23153 32.5824 7.28835 32.3551 7.40199C32.1307 7.51278 31.956 7.67045 31.831 7.875C31.706 8.07955 31.6449 8.31818 31.6477 8.59091C31.6449 8.86932 31.7074 9.11222 31.8352 9.3196C31.9631 9.52699 32.1392 9.68892 32.3636 9.8054C32.5909 9.92187 32.8523 9.98011 33.1477 9.98011Z" fill="white"/>
</svg>
