<svg width="41" height="32" viewBox="0 0 41 32" fill="none" xmlns="http://www.w3.org/2000/svg">
<path opacity="0.75" d="M17.2486 19H10.8816C4.87068 19 0 23.85 0 29.8312C0 31.0312 0.974512 32 2.17633 32H25.9514C27.157 32 28.1302 31.0312 28.1302 29.8312C28.1302 23.85 23.2577 19 17.2486 19ZM25.9514 30H2.17633C2.08465 30 2.0093 29.925 2.0093 29.8312C2.0093 24.9625 5.99023 21 10.8816 21H17.2486C22.14 21 26.1209 24.9625 26.1209 29.8312C26.1209 29.925 26.0456 30 25.9514 30ZM14.0651 16C18.5044 16 22.1023 12.4181 22.1023 8C22.1023 3.58187 18.5044 0 14.0651 0C9.62582 0 6.02791 3.58187 6.02791 8C6.02791 12.4181 9.62582 16 14.0651 16ZM14.0651 2C17.3893 2 20.093 4.69125 20.093 8C20.093 11.3081 17.3893 14 14.0651 14C10.741 14 8.03721 11.3062 8.03721 8C8.03721 4.69125 10.7435 2 14.0651 2ZM23.5528 15.0625C24.6705 15.675 25.8886 16 27.1256 16C31.0061 16 34.1581 12.8625 34.1581 9C34.1581 5.1375 31.0061 2 27.1256 2C26.32 2 25.5313 2.13475 24.781 2.39944C24.2581 2.584 23.9842 3.15506 24.1698 3.67569C24.3552 4.19719 24.9308 4.46694 25.452 4.28406C25.9891 4.09562 26.5479 4 27.1256 4C29.8947 4 32.1488 6.24312 32.1488 9C32.1488 11.7569 29.8947 14 27.1256 14C26.2415 14 25.3731 13.7686 24.6152 13.3319C24.1345 13.0536 23.5201 13.2176 23.2426 13.6961C22.9626 14.175 23.1258 14.7875 23.5528 15.0625ZM30.8114 20H28.1302C27.5749 20 27.1256 20.4473 27.1256 21C27.1256 21.5527 27.5777 22 28.1302 22H30.8095C34.874 22 38.1768 25.2875 38.1768 29.3312C38.1768 29.7 37.8754 30 37.5049 30H31.1442C30.5889 30 30.1395 30.4473 30.1395 31C30.1395 31.5527 30.5889 32 31.1442 32H37.5049C38.9867 32 40.1861 30.8062 40.1861 29.3312C40.1861 24.1312 35.9791 20 30.8114 20Z" fill="white"/>
</svg>
