<svg width="79" height="44" viewBox="0 0 79 44" fill="none" xmlns="http://www.w3.org/2000/svg">
<rect x="12" width="67" height="44" rx="10" fill="#FA2D6C"/>
<rect width="67" height="44" rx="10" fill="#20D5EC"/>
<rect x="6" width="67" height="44" rx="10" fill="white"/>
<path d="M50 22C50 22.8505 49.3455 23.5389 48.5385 23.5389H41.9615V30.462C41.9615 31.3125 41.307 32 40.5 32C39.693 32 39.0385 31.3125 39.0385 30.462V23.5389H32.4615C31.6545 23.5389 31 22.8505 31 22C31 21.1495 31.6545 20.462 32.4615 20.462H39.0385V13.5389C39.0385 12.6885 39.693 12 40.5 12C41.307 12 41.9615 12.6885 41.9615 13.5389V20.462H48.5385C49.3469 20.4615 50 21.149 50 22Z" fill="black"/>
</svg>
