<svg width="37" height="32" viewBox="0 0 37 32" fill="none" xmlns="http://www.w3.org/2000/svg">
<path d="M35.5961 14.3562C36.2296 14.8937 36.3111 15.8375 35.7717 16.4688C35.2323 17.1 34.2852 17.1812 33.6516 16.6437L32.1149 15.3438V27C32.1149 29.7625 29.8694 32 27.0969 32H9.03231C6.26115 32 4.01436 29.7625 4.01436 27V15.3438L2.47949 16.6437C1.84535 17.1812 0.895702 17.1 0.357526 16.4688C-0.180335 15.8375 -0.102494 14.8937 0.531461 14.3562L17.0924 0.35625C17.6506 -0.11875 18.4786 -0.11875 19.0369 0.35625L35.5961 14.3562ZM9.03231 29H12.0431V19.5C12.0431 18.1187 13.1658 17 14.5521 17H21.5772C22.9634 17 24.0862 18.1187 24.0862 19.5V29H27.0969C28.2072 29 29.1041 28.1063 29.1041 27V12.8L18.0646 3.46688L7.02513 12.8V27C7.02513 28.1063 7.92209 29 9.03231 29ZM15.0539 29H21.0754V20H15.0539V29Z" fill="white"/>
</svg>
