<svg width="39" height="34" viewBox="0 0 39 34" fill="none" xmlns="http://www.w3.org/2000/svg">
<g filter="url(#filter0_d_2_645)">
<path d="M19.2244 0C9.12376 0 1.00179 6.65187 1.00179 14.8581C1.00179 18.4027 2.52689 21.6429 5.07134 24.1945C4.17843 27.7926 1.19466 30.9999 1.15894 31.0357C0.998214 31.1964 0.953569 31.4452 1.05179 31.6595C1.14101 31.8738 1.33902 32 1.57118 32C6.30364 32 9.79316 29.7313 11.6147 28.329C13.9456 29.2041 16.545 29.7141 19.2867 29.7141C29.3873 29.7141 37.5093 23.0615 37.5093 14.9203C37.5093 6.77903 29.3251 0 19.2244 0ZM10.0167 17.144C8.74873 17.144 7.73081 16.1261 7.73081 14.9224C7.73081 13.7188 8.74873 12.6366 10.0167 12.6366C11.2846 12.6366 12.3025 13.6545 12.3025 14.9224C12.3025 16.1904 11.3453 17.144 10.0167 17.144ZM19.2244 17.144C17.9565 17.144 17.0029 16.1261 17.0029 14.9224C17.0029 13.7188 18.0208 12.6366 19.2244 12.6366C20.4281 12.6366 21.446 13.6545 21.446 14.9224C21.446 16.1904 20.4959 17.144 19.2244 17.144ZM28.3036 17.144C27.0357 17.144 26.0177 16.1261 26.0177 14.9224C26.0177 13.7188 27.0357 12.6366 28.3036 12.6366C29.5716 12.6366 30.5895 13.6545 30.5895 14.9224C30.5895 16.1904 29.6323 17.144 28.3036 17.144Z" fill="white"/>
</g>
<defs>
<filter id="filter0_d_2_645" x="0" y="0" width="38.5093" height="34" filterUnits="userSpaceOnUse" color-interpolation-filters="sRGB">
<feFlood flood-opacity="0" result="BackgroundImageFix"/>
<feColorMatrix in="SourceAlpha" type="matrix" values="0 0 0 0 0 0 0 0 0 0 0 0 0 0 0 0 0 0 127 0" result="hardAlpha"/>
<feOffset dy="1"/>
<feGaussianBlur stdDeviation="0.5"/>
<feComposite in2="hardAlpha" operator="out"/>
<feColorMatrix type="matrix" values="0 0 0 0 0 0 0 0 0 0 0 0 0 0 0 0 0 0 0.5 0"/>
<feBlend mode="normal" in2="BackgroundImageFix" result="effect1_dropShadow_2_645"/>
<feBlend mode="normal" in="SourceGraphic" in2="effect1_dropShadow_2_645" result="shape"/>
</filter>
</defs>
</svg>
