<svg width="188" height="57" viewBox="0 0 188 57" fill="none" xmlns="http://www.w3.org/2000/svg">
<path d="M1.9502 48.7863L2.13266 49.3109C2.10985 49.2538 2.04143 49.0714 1.9502 48.7863ZM9.35139 36.8235C9.6821 33.9839 10.7997 32.3987 12.898 30.768C15.9087 28.567 19.6606 29.81 19.6606 29.81V22.4088C20.5729 22.386 21.4852 22.443 22.3862 22.5799V32.1022C22.3862 32.1022 18.6342 30.8592 15.6236 33.0602C13.5253 34.6909 12.4077 36.2761 12.0769 39.1157C12.0655 40.6552 12.3392 42.6737 13.6165 44.4071C13.2972 44.2361 12.9779 44.0422 12.6471 43.8255C9.85316 41.864 9.33998 38.9104 9.35139 36.8235ZM37.907 8.72403C35.8429 6.3634 35.056 3.96856 34.7709 2.29218H37.371C37.371 2.29218 36.8578 6.69412 40.6326 11.0162L40.6896 11.0733C39.6632 10.4118 38.7281 9.61354 37.907 8.72403ZM50.44 15.4296V24.758C50.44 24.758 47.1214 24.6212 44.6582 23.9712C41.2256 23.0589 39.0246 21.6562 39.0246 21.6562C39.0246 21.6562 37.4965 20.6526 37.3824 20.5842V39.8569C37.3824 40.9289 37.0973 43.6089 36.242 45.844C35.1244 48.7635 33.391 50.6907 33.0717 51.0785C33.0717 51.0785 30.962 53.6786 27.2557 55.4234C23.9143 56.9971 20.9721 56.9629 20.094 56.9971C20.094 56.9971 15.0192 57.2024 10.4462 54.1119C9.45403 53.4277 8.5303 52.6522 7.68641 51.7969L7.70921 51.8197C12.2822 54.9216 17.357 54.7049 17.357 54.7049C18.2351 54.6707 21.1773 54.7049 24.5187 53.1312C28.225 51.3864 30.3347 48.7863 30.3347 48.7863C30.6541 48.3985 32.3875 46.4713 33.5051 43.5518C34.3604 41.3167 34.6455 38.6367 34.6455 37.5647V18.3034C34.7709 18.3718 36.2876 19.3754 36.2876 19.3754C36.2876 19.3754 38.4886 20.7781 41.9212 21.6904C44.3845 22.3404 47.703 22.4773 47.703 22.4773V15.1673C48.8434 15.4296 49.8128 15.498 50.44 15.4296V15.4296Z" fill="#EE1D52"/>
<path d="M47.703 15.1559V22.4658C47.703 22.4658 44.3845 22.329 41.9212 21.679C38.4886 20.7666 36.2876 19.364 36.2876 19.364C36.2876 19.364 34.7595 18.3604 34.6454 18.292V37.5647C34.6454 38.6367 34.3603 41.3166 33.505 43.5518C32.3875 46.4713 30.654 48.3985 30.3347 48.7863C30.3347 48.7863 28.225 51.3864 24.5187 53.1312C21.1773 54.7049 18.2351 54.6707 17.357 54.7049C17.357 54.7049 12.2822 54.9102 7.70921 51.8197L7.6864 51.7969C7.20743 51.3066 6.75127 50.7934 6.32932 50.2574C4.86961 48.3985 3.9801 46.209 3.75202 45.5817V45.5703C3.38709 44.487 2.63443 41.864 2.73706 39.3438C2.91953 34.8848 4.42486 32.1364 4.824 31.4522C5.87316 29.5819 7.25305 27.9056 8.87242 26.5029C10.3093 25.294 11.9401 24.3247 13.6849 23.6519C15.578 22.8536 17.6079 22.4316 19.6606 22.3974V29.7986C19.6606 29.7986 15.9087 28.5556 12.898 30.7566C10.7997 32.3873 9.6821 33.9725 9.35138 36.8121C9.33998 38.899 9.85316 41.8526 12.6585 43.8255C12.9893 44.0422 13.3086 44.2361 13.6279 44.4071C14.1183 45.0686 14.7113 45.6502 15.3955 46.1291C18.1439 47.9424 20.4361 48.0678 23.3783 46.8932C25.3398 46.1063 26.8109 44.3387 27.4951 42.3658C27.9285 41.1342 27.9171 39.9026 27.9171 38.6253V2.29218H34.7595C35.0446 3.96856 35.8201 6.3634 37.8956 8.72403C38.7281 9.61354 39.6632 10.4118 40.6782 11.0733C40.9747 11.404 42.5142 13.0005 44.4985 13.9927C45.5135 14.5059 46.5968 14.8936 47.703 15.1559V15.1559Z" fill="white"/>
<path d="M1.02637 43.3238L1.19743 43.8142C1.17462 43.7572 1.1062 43.5861 1.02637 43.3238Z" fill="#69C9D0"/>
<path d="M13.6849 23.6633C11.9287 24.3361 10.3093 25.3055 8.87239 26.5143C7.24162 27.917 5.87314 29.6048 4.82397 31.475C4.42483 32.1593 2.9195 34.8962 2.73704 39.3666C2.6344 41.8983 3.39847 44.5098 3.752 45.5932V45.6046C3.98008 46.2204 4.86959 48.4214 6.3293 50.2802C6.75125 50.8162 7.20741 51.3294 7.68638 51.8198C6.13543 50.7478 4.76695 49.4591 3.59234 47.988C2.14403 46.152 1.25452 43.9738 1.02644 43.3352V43.3124C0.661512 42.229 -0.102555 39.6061 0.0114849 37.0744C0.193949 32.6154 1.69928 29.8671 2.09842 29.1828C3.14758 27.3126 4.51606 25.6248 6.14684 24.2221C7.58374 23.0133 9.21451 22.0439 10.9593 21.3711C12.0541 20.9149 13.1945 20.5842 14.3577 20.3675C16.1139 20.0596 17.9044 20.0368 19.672 20.2877V22.4088C17.6079 22.4431 15.5779 22.865 13.6849 23.6633V23.6633Z" fill="#69C9D0"/>
<path d="M34.7708 2.2922H27.9284V38.6253C27.9284 39.9026 27.9284 41.1342 27.5064 42.3659C26.8108 44.3273 25.3397 46.1064 23.3896 46.8932C20.4473 48.0793 18.1437 47.9424 15.4068 46.1292C14.7225 45.6616 14.1295 45.08 13.6392 44.4186C15.977 45.6616 18.0639 45.6388 20.6526 44.601C22.6141 43.8142 24.0852 42.0351 24.7695 40.0736C25.2028 38.842 25.1914 37.6104 25.1914 36.3331V0H34.6453C34.6339 0 34.5313 0.900916 34.7708 2.2922V2.2922ZM47.7029 13.1374V15.1559C46.5967 14.8936 45.5133 14.5059 44.4984 13.9927C42.5255 13.012 40.9859 11.404 40.678 11.0733C41.0316 11.3014 41.3851 11.5066 41.7614 11.7005C44.1791 12.8979 46.5397 13.2628 47.7029 13.1374Z" fill="#69C9D0"/>
<path d="M142.889 32.0044C142.889 32.5288 142.958 33.0304 143.117 33.532C143.117 33.5776 143.14 33.6004 143.14 33.646C143.892 36.0627 146.127 37.7043 148.658 37.7043V43.5409C145.808 43.5409 143.778 43.6321 140.678 41.8082C137.167 39.7106 135.183 35.9031 135.183 31.936C135.183 27.8549 137.395 23.751 141.179 21.7675C143.915 20.3311 145.99 20.3311 148.68 20.3311V26.1678C145.488 26.1678 142.912 28.7441 142.912 31.936L142.889 32.0044Z" fill="#69C9D0"/>
<path d="M154.471 32.0044C154.471 32.5288 154.403 33.0304 154.243 33.532C154.243 33.5776 154.22 33.6004 154.22 33.646C153.468 36.0627 151.234 37.7043 148.703 37.7043V43.5409C151.53 43.5409 153.582 43.6321 156.66 41.8082C160.194 39.7106 162.177 35.9031 162.177 31.936C162.177 27.8549 159.966 23.751 156.181 21.7675C153.445 20.3311 151.371 20.3311 148.68 20.3311V26.1678C151.872 26.1678 154.448 28.7441 154.448 31.936V32.0044H154.471Z" fill="#EE1D52"/>
<path d="M59.375 15.0417H80.738L78.7545 20.9239H73.1686V43.4269H66.306V20.9239H59.375V15.0417ZM116.009 15.0417V20.9239H122.94V43.4269H129.825V20.9239H135.411L137.395 15.0417H116.009ZM85.3891 21.7219C87.2359 21.7219 88.7178 20.2399 88.7178 18.3932C88.7178 16.5464 87.2359 15.0645 85.3891 15.0645C83.5424 15.0645 82.0604 16.5464 82.0604 18.3932C82.0604 20.2399 83.5424 21.7219 85.3891 21.7219ZM82.0604 43.4041H88.809V24.0702H82.0604V43.4041ZM113.068 21.5623H105.179L98.3848 28.3565V15.0417H91.6817L91.6589 43.3813H98.4304V35.9943L100.528 34.0792L107.094 43.3813H114.322L104.814 29.7929L113.068 21.5623ZM177.772 29.8157L186.026 21.5623H178.137L171.343 28.3565V15.0417H164.64L164.594 43.4041H171.366V36.0171L173.486 34.1019L180.052 43.4041H187.28L177.772 29.8157ZM160.422 31.9132C160.422 38.3198 155.155 43.5181 148.657 43.5181C142.16 43.5181 136.893 38.3198 136.893 31.9132C136.893 25.5066 142.16 20.3083 148.657 20.3083C155.155 20.3083 160.422 25.5066 160.422 31.9132ZM154.426 31.9132C154.426 28.7213 151.849 26.145 148.657 26.145C145.466 26.145 142.889 28.7213 142.889 31.9132C142.889 35.1051 145.466 37.6815 148.657 37.6815C151.849 37.6815 154.426 35.1051 154.426 31.9132Z" fill="white"/>
</svg>
